<?xml version="1.0" encoding="iso-8859-1"?>
<!-- Generator: Adobe Illustrator 19.0.0, SVG Export Plug-In . SVG Version: 6.00 Build 0)  -->
<svg version="1.0" xmlns="http://www.w3.org/2000/svg" xmlns:xlink="http://www.w3.org/1999/xlink" x="0px" y="0px" width="1000px"
	 height="500px" viewBox="0 0 1000 500" enable-background="new 0 0 1000 500" xml:space="preserve">
<g id="Layer_1" display="none">
	
		<image display="inline" overflow="visible" width="1920" height="1280" xlink:href="big.png"  transform="matrix(0.24 0 0 0.24 22 22)">
	</image>
</g>
<g id="box">
	<rect x="21.589" y="22" fill="none" stroke="#00FF6D" stroke-miterlimit="10" width="461.078" height="306.667"/>
</g>
<g id="Layer_12">
	<path fill="none" stroke="#00FF6D" stroke-miterlimit="10" d="M26.693,202.255c2.483,0.049,5.35-0.429,7.699-1.187
		c7.771-2.509,15.541-2.607,23.271-5.29c7.861-2.729,16.797-3.325,25.045-4.352c5.421-0.675,11.519-1.029,17.004-0.659
		c21.389,1.445,42.75-1.955,64.058-1.05c0.077,13.132,3.855,26.268,4.372,39.505c12.976,3.671,27.081,0.401,40.284,2.137
		c3.28,0.431,6.433,1.582,9.741,1.824c5.381,0.394,10.898-0.593,16.286-0.725c3.864-0.095,9.264-1.079,11.762,2.51
		c-1.856-0.453-3.252-1.927-4.848-2.981c-4.207-2.778-8.413-4.305-13.136-5.927c-11.025-3.788-21.15-9.587-31.697-14.465
		c-7.543-3.489-15.631-4.311-23.4-7.134c-7.295-2.65-14.308-5.799-20.826-10.001c-12.072-7.784-28.826-23.332-28.834-39.293
		c-0.003-6.313,6.544-8.203,12.053-7.759c8.737,0.704,12.73-8.335,20.66-10.916c3.695-1.203,3.436-0.468,5.543-3.616
		c5.087-7.602,10.858-14.353,17.122-20.972c8.092-8.551,18.762-15.143,29.478-19.764c4.453-1.92,15.613-8.39,20.348-4.5
		c1.263,1.038,3.909,5.401,4.607,7.022c1.403,3.258,2.019,7.887,2.401,11.454c0.34,3.172-0.077,5.118-1.43,8.013
		c-0.889,1.903-2.878,3.233-1.71,5.382c3.777-0.811,7.389-7.7,8.627-11.117c1.086-2.998,0.733-7.531,3.493-9.717
		c4.133-3.274,8.981-0.09,12.431,2.46c5.68,4.197,11.902,7.466,14.49,14.487c1.203,3.263,0.144,13.263,2.71,15.383
		c4.457-1.236,7.236-5.116,12.024-6.047c5.09-0.99,11.379-3.63,16.593-1.993c4.485,1.409,13.763,7.622,10.386,13.599
		c-2.494,4.414-11.481,3.8-14.449,8.408c-1.816,2.819-0.88,8.089-0.126,11.221c1.445,6.003,1.65,7.739,6.399,11.058
		c5.104,3.567,12.987,10.846,12.335,17.853c-0.508,5.458-6.367,7.501-10.467,9.602c-3.988,2.043-4.806,6.867-2.003,10.385
		c3.946,4.952,9.156,9.058,13.094,14.256c5.25,6.93,10.824,14.684,16.928,20.841c4.643,4.683,9.837,8.796,15.241,12.445
		c4.468,3.017,9.394,5.806,12.47,10.427c4.399,6.609-0.232,19.647-7.365,22.774c-2.586,1.134-6.528,1.172-9.36,1.509
		c-1.661,0.198-5.894-0.533-7.489,0.313c-7.828,4.151,7.251,5.209,8.952,5.355c5.055,0.433,10.133,2.059,15.16,2.867
		c4.311,0.693,9.549,1.721,12.981,4.554c3.541,2.923,4.074,9.628,8.485,11.324c2.877,1.106,3.701,0.005,4.228-2.668
		c1.744-8.844-4.672-12.067-9.421-17.491c-1.764-2.015-2.412-4.751-4.366-6.628c-1.73-1.661-3.913-2.494-5.478-4.515
		c-1.71-2.21-3.883-5.914-4.027-8.696c5.283-1.413,9.687,6.105,13.793,8.365c4.795,2.639,13.284,3.904,18.745,4.194
		c7.26,0.385,13.083-3.754,18.847-7.761c9.377-6.518,12.949-14.159,13.622-25.608c1.042-17.722-21.024-17.332-32.275-10.432
		c-9.468,5.806-16.421,5.832-25.275-2.59c-5.021-4.777-5.873-12.305-10.556-17.313c-4.469-4.779-11.826-4.711-17.863-5.128
		c-6.744-0.466-10.273,1.626-15.652-3.738c-6.198-6.18-8.002-13.176-6.627-21.783c0.603-3.777,2.502-6.754,7.559-6.058
		c6.118,0.842,10.704,12.418,13.997,16.801c11.045,14.705,30.696,29.349,49.512,17.941c13.697-8.305,24.568-29.335,10.688-42.35
		c-6.499-6.094-14.25-3.161-21.391,0.341c-3.124,1.532-6.522,4.46-9.96,5.063c-3.813,0.669-4.525-1.281-7.659-3.191
		c-2.58-1.573-7.399-2.64-7.51-6.476c-0.203-6.957,10.056-8.951,14.867-10.144c10.879-2.698,20.88-4.51,28.537-13.41
		c6.128-7.123,8.186-15.375,5.241-24.391c-2.819-8.63-10.84-10.978-19.493-9.615c-9.374,1.476-15.39,11.592-24.418,13.905
		c-6.165,1.58-7.096-3.281-7.717-8.656c-0.354-3.061-0.853-7.077-0.076-10.106c1.389-5.416,7.114-10.221,10.353-14.768
		c6.726-9.444,15.965-18.291,16.537-30.541c0.487-10.449-1.857-23.882-13.842-25.792c-10.274-1.637-14.28,6.619-16.116,15.562
		c-1.645,8.012-1.763,14.736-6.711,21.513c-2.986,4.09-4.596,4.857-7.601,0.087c-3.471-5.51-6.949-16.253-14.394-17.713
		c-7.81-1.531-8.554,7.75-9.462,12.958c-1.665,9.554-10.788,10.811-19.537,11.472c-12.162,0.92-23.9,1.236-35.259-4.256
		c-4.025-1.946-7.487-5.41-11.481-7.129c-1.985-0.855-4.032-0.486-5.982-1.212c-9.39-3.494,3.764-17.143,6.904-22.076
		c2.539-3.988,1.934-8.702-0.472-12.765c-0.466-0.091-0.938-0.104-1.413-0.038"/>
</g>
<g id="Layer_13">
	<path fill="none" stroke="#00FF6D" stroke-miterlimit="10" d="M203.022,26.286c-5.485,6.202,5.813,8.526,8.446,11.57
		c1.943,2.247,4.24,5.008,3.174,7.816c-0.359,0.946-1.597,0.536-2.083,1.299c-1.064,1.672-1.304,3.081-1.276,5.048
		c0.05,3.496,1.57,3.812,2.955,5.908c1.353,2.048,1.857,0.481,1.628,3.501c-0.204,2.691-3.032,5.1-3.367,7.985
		c-0.924,7.967,17.364,6.313,13.857,14.844c-0.656,1.597-3.614,2.268-5.116,2.5c-4.069,0.629-6.209,0.986-9.774,3.485
		c-8.125,5.694-16.925,9.784-25.408,14.924c-5.144,3.117-9.935,6.349-13.659,11.081c-4.022,5.11-8.456,11.154-14.148,14.522
		c-10.262,6.073-22.986,9.745-31.832,17.568c-5.891,5.209-9.105,11.414-4.1,19.157c2.801,4.334,7.118,6.293,8.66,11.507
		c0.798,2.701,0.799,5.453,1.771,8.092c-5.098,0.412-11.185,0.489-14.654-3.399c-5.146-5.768-9.989-16.228-10.092-24.048
		c-0.141-10.717,11.023-19.37,19.355-23.845c4.647-2.496,8.309-5.897,12.325-9.157c4.367-3.545,10.166-5.652,14.352-9.37
		c9.445-8.389,18.038-18.296,26.897-27.371c3.643-3.731,8.126-7.087,12.626-9.711c2.075-1.21,5.355-2.22,7.016-3.871
		c2.16-2.147,3.347-8.152,0.655-10.39c-5.285-4.395-15.791,7.48-19.15,10.145c-10.073,7.992-19.744,16.283-29.892,24.293
		c-6.276,4.954-12.334,10.353-18.733,15.126c-6.636,4.95-11.945,11.111-18.091,16.703c-7.05,6.414-12.507,12.608-13.918,22.097
		c-1.305,8.774,4.57,16.464,4.704,25.258c0.12,7.864-6.167,5.522-8.384-0.522c-3.908-10.652-5.679-22.956,0.318-33.053
		c7.159-12.056,13.887-25.265,23.368-35.747c10.934-12.088,22.978-23.317,35.528-33.513c9.163-7.444,20.273-12.392,29.742-19.504
		c4.838-3.633,16.049-18.836,1.958-16.066c-8.597,1.69-14.905,9.858-21.653,14.663c-8.8,6.265-17.545,12.667-26.225,19.1
		c-10.37,7.684-21.163,15.3-28.976,25.661c-5.143,6.82-13.324,13.117-16.399,21.167c-1.963,5.137-3.352,9.802-6.211,14.67
		c-3.914,6.665-10.6,14.524-12.098,22.277c-1.06,5.483,0.952,11.163,0.324,16.628c-0.527,4.592-4.062,8.7-7.49,3.007
		c-3.671-6.098-2.555-15.943-2.259-22.718c0.328-7.509,3.632-15.3,7.311-21.72c5.39-9.406,13.403-16.658,19.051-25.764
		c6.366-10.264,14.205-20.223,22.517-29.068c6.566-6.987,14.36-13.231,21.844-19.234c7.462-5.985,14.7-12.504,23.187-17.025
		c4.084-2.175,13.82-3.851,16.534-7.795c3.043-4.421-1.248-8.378-5.908-7.927c-7.341,0.71-15.163,5.185-21.721,8.26
		c-7.837,3.674-15.548,8.194-22.631,13.17c-5.679,3.989-10.161,8.462-14.638,13.598c-8.333,9.558-19.291,16.348-27.733,25.724
		c-7.314,8.124-14.824,16.087-22.18,24.152c-3.799,4.166-6.685,9.066-8.144,14.525c-2.008,7.51-4.933,15.721-3.822,23.603
		c1.287,9.131,2.787,17.694,3.034,26.972c0.082,3.079,1.68,8.434-2.505,9.595c-6.507,1.805-10.443-11.354-11.291-15.349
		c-2.087-9.83-2.789-20.058-0.928-30c1.683-8.993,8.355-18.09,13.169-25.719c4.649-7.368,9.772-14.339,14.668-21.507
		c2.694-3.944,4.511-8.148,7.827-11.647c6.799-7.175,14.929-12.984,21.632-20.26c3.48-3.778,7.454-6.999,10.945-10.742
		c2.676-2.869,6.407-5.585,8.755-8.584c3.206-4.096,1.013-7.513-4.656-7.559c-5.986-0.048-11.383,3.583-15.825,7.205
		C88.44,48.822,80.41,57.333,74.285,65.203c-7.273,9.345-17.082,17.076-23.231,27.263c-1.987,3.291-5.542,13.633-9.774,15.319
		c-4.219,1.68-4.968-3.301-4.957-6.288c0.045-12.594,12.452-21.464,20.226-29.739c2.432-2.588,24.431-26.693,13.061-27.15
		c-3.37-0.136-4.709,4.677-5.956,7.054c-2.666,5.084-5.346,10.128-9.203,14.463c-3.402,3.824-7.757,6.139-12.693,7.455
		c-3.326-8.622,24.197-30.562,20.196-34.641c-3.216-3.278-9.583,4.057-11.079,5.621c-1.987,2.077-7.534,10.715-10.475,9.637
		c-5.412-1.983-1.631-8.756,0.55-11.016c1.886-1.954,8.411-5.601,5.2-8.417c-4.883-4.282-11.279,9.137-13.678-3.002
		c-0.587,0.828-1.193,1.641-1.82,2.44"/>
</g>
<g id="Layer_14">
	<path fill="none" stroke="#00FF6D" stroke-miterlimit="10" d="M70.596,191.819c-0.24,0-0.48,0-0.72,0"/>
	<path fill="none" stroke="#00FF6D" stroke-miterlimit="10" d="M31.012,206.933c21.557,0,42.327,0.786,63.721-3.395
		c10.902-2.131,21.3-5.658,32.503-5.161c5.916,0.262,11.927-0.067,17.85,0.28c8.672,0.508,1.175,5.462-3.651,6.415
		c-14.71,2.902-29.679,3.536-44.574,4.453c-6.438,0.396-21.954-1.002-26.896,3.843c-6.548,6.421,4.773,11.72,9.591,11.934
		c24.892,1.104,48.897-10.324,73.797-9.332c-2.841,4.715-11.279,4.559-16.067,5.692c-3.005,0.711-12.94,1.887-14.236,5.228
		c-2.528,6.518,12.219,0.618,13.785,0.122c3.906-1.238,9.37-2.92,13.302-1.023c-3.207,2.057-20.085,5.081-19.45,10.814
		c0.658,5.938,16.016-3.31,18.78-1.851c-7.497,4.726-16.984,2.433-24.491,6.483c-1.702,10.417,0.269,20.127,0.86,30.623
		c0.28,4.963,0.861,9.647,1.642,14.509c0.617,3.839-0.425,8.018,0.364,11.765c0.908,4.317,5.293,7.373,9.229,9.124
		c5.378,2.393,13.373,2.668,19.179,3.081c6.956,0.495,14.359,0.518,21.331,0.333c7.629-0.203,15.013,0.16,22.574,0.425
		c1.928,0.068,4.568,0.438,6.101-0.676c3.937-2.86,2.163-12.415,2.163-16.134c0-12.682-1.744-24.977-2.158-37.606
		c-0.21-6.398-2.535-5.016-8.896-5.687c-21.04-2.221-43.04-4.98-64.136-3.543c-0.528,6.865,1.278,13.114,2.507,19.71
		c0.963,5.167-0.244,11.487,2.557,16.118c4.023,6.653,7.691,10.685,15.71,11.374c10.296,0.886,20.632,1.237,30.893,2.388
		c3.63,0.407,7.272,0.721,10.847,0.748c1.618-12.067,0.747-24.366-1.357-36.311c-0.527-2.992-0.769-7.483-2.481-10.01
		c4.997-3.689,14.079-1.05,19.485,0.188c7.318,1.676,14.857,0.792,22.209,2.258c0.348,3.047-1.271,4.741-1.793,7.335
		c-0.854,4.239-0.439,10.035-0.383,14.37c0.107,8.243,1.838,17.65,0.072,25.813c-0.6,2.776-2.449,9.131-5.751,10.089
		c-8.975,2.605-7.955-24.1-8.331-27.5c-0.822-7.424-1.986-15.717-1.442-23.245c0.18-2.501,0.497-4.747,2.338-6.72
		c3.392-3.637,15.654-5.544,20.453-4.51c13.507,2.911,9.311,21.791,8.646,31.198c-0.72,10.178-0.684,21.568,0.345,31.703
		c0.176-0.81,0.14-1.621-0.108-2.434"/>
</g>
<g id="Layer_2">
	<path fill="none" stroke="#00FF6D" stroke-miterlimit="10" d="M135.723,153.192c-1.151,0.478-2.302,0.956-3.453,1.434
		c3.818-5.04,9.683-8.031,15.341-10.854c1.547-0.772,3.219-1.566,4.93-1.318c1.711,0.248,3.29,2.052,2.627,3.649
		c14.706-13.226,30.233-25.538,46.464-36.841c0.525,1.163,1.05,2.326,1.575,3.489c5.541-5.135,11.909-9.374,18.784-12.504
		c1.205-0.549,2.625-1.061,3.804-0.458c1.228,0.628,1.618,2.164,1.879,3.519c0.541,2.814,1.081,5.629,1.622,8.443
		c-3.018-0.479-6.036-0.957-9.054-1.436c-0.308,1.392,1.126,2.495,1.7,3.799c1.152,2.618-1.324,5.372-3.748,6.89
		s-5.363,3.14-5.714,5.978c-0.392,3.167,3.093,5.746,6.279,5.566c3.186-0.179,8.891-3.142,11.242-5.299
		c3.919-3.594,6.122-6.279,9-10.75c2.155-3.348,3.073-7.55,6-10.25s6.534-4.258,10.202-2.708c4.63,1.958,6.056,7.705,6.889,12.663
		c1.495,8.9,2.995,17.866,2.772,26.888c3.557-3.713,7.728-6.891,12.436-8.96c9.414-4.137,20.134-3.578,30.397-2.942
		c-0.817,2.15-3.366,3.476-5.596,2.91c-0.033,1.062-0.066,2.124-0.099,3.187c-2.969,0.429-6.17,0.973-8.249,3.136
		c-1.09,1.134-1.775,2.631-2.974,3.649c-1.199,1.017-3.303,1.3-4.167-0.014c0.974,7.72,1.949,15.439,2.923,23.159
		c1.428-0.386,2.855-0.772,4.283-1.158c0.112,4.697,5.532,7.038,9.839,8.918c4.306,1.88,8.964,6.537,6.488,10.53
		c-1.604,2.587-5.191,2.868-8.235,2.865c1.645,4.885,2.204,10.131,1.626,15.253c-0.781-7.368-3.896-14.471-8.787-20.037
		c-0.894-1.017-1.935-2.035-3.266-2.284s-2.944,0.655-2.928,2.009c0.016,1.341,1.429,2.146,2.573,2.847
		c5.061,3.101,7.826,9.543,6.587,15.347c-0.109,0.995,0.411,1.94,0.927,2.798c5.217,8.681,11.726,16.502,18.208,24.284
		c6.781,8.142,13.563,16.284,20.344,24.427c1.981,2.378,4.095,4.853,6.993,5.938c3.093,1.157,3.176-0.801,6.066,0.796
		c4.95,2.736,6.486,9.503,2.25,13.25s-8.73,5.23-14.25,4s-10.921-2.331-16.471-3.42c-5.71-1.12-9.76-2.74-15.279-4.58
		c-2.811-0.937-8.2-2.99-10.75-4.5c-15.504-9.179-29.448-17.138-45.883-24.523c-8.122-3.649-16.596-6.508-24.549-10.513
		c-7.034-3.542-13.593-7.946-20.13-12.338c-9.174-6.163-18.348-12.326-27.522-18.49c-18.817-12.641-38.907-26.945-45.51-48.63
		c6.157-2.536,12.313-5.073,18.47-7.609c1.413-0.582,3.185-1.115,4.337-0.112c1.259,1.096,0.767,3.175-0.133,4.581
		c-2.782,4.345-8.709,8.269-6.744,13.04c0.546,1.326,1.65,2.328,2.72,3.282c6.795,6.064,13.59,12.127,20.386,18.191
		c4.806,4.288,11.638,8.814,17.105,5.409c3.929-2.447,6.034-8.561,10.645-8.164c1.47,0.127,2.77,0.967,3.986,1.803
		c8.589,5.899,16.483,12.808,23.469,20.539c3.641,4.029,7.084,10.29,3.55,14.413c-0.826,0.964-2.004,1.731-2.323,2.96
		c-0.573,2.212,1.903,3.907,3.986,4.847c12.985,5.858,25.97,11.715,38.955,17.573c1.227,0.554,2.802,1.062,3.799,0.158
		c0.987-0.894,0.719-2.629,1.658-3.572c0.958-0.962,2.565-0.588,3.849-0.148c13.563,4.645,27.126,9.289,40.689,13.934
		c4.962,1.699,9.999,3.436,14.288,6.453c-6.4,4.283-14.761,4.654-22.272,2.954s-14.445-5.256-21.473-8.404
		c-18.471-8.273-38.051-13.884-56.46-22.293c-7.475-3.415-14.734-7.281-21.988-11.144c-19.2-10.226-38.531-20.538-55.459-34.201
		c-10.933-8.824-21.071-19.457-25.646-32.741"/>
</g>
<g id="Layer_3">
	<path fill="none" stroke="#00FF6D" stroke-miterlimit="10" d="M169.167,149c0.942-1.039,5.087-1.188,6.568-1.625
		c2.719-0.803,5.478-1.812,8.279-2.253c7.21-1.137,14.102-3.89,21.361-4.879c6.998-0.953,14.181-1.111,21.22-1.758
		c3.617-0.332,7.296-1.196,10.939-0.958c2.145,0.14,4.3,0.39,6.441,0.499c0.043,2.3,1.495,1.637,3.535,1.808
		c3.631,0.304,7.163-0.224,10.768,0.503c1.562,0.315,3.441,0.924,4.684,1.992c1.687,1.45,0.394,2.286-1.606,2.511
		c-5.534,0.621-11.342-3.573-16.87-1.506c-1.601,0.599-1.284,1.127-2.02,2.302c-0.862,1.376-1.763,2.145-3.152,3.093
		c-1.718,1.174-4.724,2.64-5.664,4.476c1.327,1.687,4.595,1.517,6.522,1.795c1.9,0.274,3.336,1.064,5.132,1.632
		c3.56,1.127,8.039-1.583,11.156-3.127c-0.629,0.835-1.447,1.343-2.035,2.148c-0.844,1.153-1.405,2.557-2.508,3.379
		c-1.022,0.762-6.963,1.787-6.92,3.146c1.082,0.398,6.425-1.813,5.668,1.023c-0.283,1.061-2.179,1.512-3.036,1.991
		c-1.517,0.848-3.147,1.735-4.698,2.637c-0.86,0.5-5.112,3-4.06,4.771c0.662,1.115,6.678,0.964,8.024,0.716
		c1.373-0.253,3.048-1.152,4.466-1.553c1.509-0.426,2.734-1.145,4.085-1.764c1.806-0.828,2.886-0.945,3.73,1.161
		c0.582,1.452,1.201,4.724,0.035,5.503c-0.943,0.63-3.203,0.244-4.338,0.334c-1.258,0.1-2.298,0.358-3.508,0.761
		c-1.639,0.546-3.534,1.737-4.912,0.023c-1.314-1.634,0.804-2.39,2.359-2.937c0.213,1.414-1.455,2.637-0.231,3.568
		c2.14,1.628,6.54-2.463,8.442-0.811c2.892,2.511-4.546,5.71-5.713,6.248c-3.905,1.799-7.138,5.104-10.64,7.601
		c-3.221,2.298-5.23,5.112-6.016,8.951c-0.356,1.738-0.464,7.795-2.058,8.701c-2.063,1.173-3.721-3.49-4.775-4.654
		c-1.403-1.547-2.516-3.228-3.8-4.888c-4.281-5.53-8.722-8.875-15.272-11.294c-3.648-1.347-8.15-3.195-10.92-6.095
		c-1.147-1.201-1.994-2.715-2.31-4.33c-0.32-1.637,0.002-1.797,1.05-3.104c1.599-1.994,0.146-2.777-1.517-4.542
		c-2.015-2.14-4.424-4.501-6.822-6.225c-1.65-1.187-3.53-2.06-5.016-3.453c-0.981-0.92-1.84-1.996-2.92-2.854
		c-1.236-0.982-2.754-1.48-3.975-2.432c-1.679-1.309-5.636-4.449-6.016-6.584c0.088-0.146,0.209-0.139,0.362,0.021"/>
</g>
<g id="Layer_4">
	<path fill="none" stroke="#00FF6D" stroke-miterlimit="10" d="M235.5,210.667c-0.007-3.784-1.055-8.193-0.085-11.922
		c1.048-4.031,4.721-7.72,7.108-11.033c2.61-3.623,7.185-6.306,11.29-7.716c2.408-0.827,4.956-0.452,5.539-3.153
		c2.947-0.077,4.734,1.011,7.366,2.165c0.736,0.323,2.029,1.023,2.801,0.973c0.909-0.059,1.833-1.285,2.732-0.961
		c1.475,0.532,2.551,4.869,3.263,6.282c1.485,2.944,3.385,4.63,5.561,7.089c6.02,6.802,9.701,15.476,14.596,23.022
		c2.308,3.558,4.776,7.164,7.981,9.938c2.05,1.774,4.073,3.794,5.752,5.923c3.881,4.921,8.647,8.326,13.658,11.977
		c1.574,1.147,3.368,2.147,5.258,2.418c1.729,0.247,5.935,0.231,4.988,3.054c-0.438,1.306-1.878,1.772-2.667,2.843
		c-0.311,0.423-0.459,1.317-0.896,1.596c-0.681,0.435-2.146,0.212-2.916,0.185c-3.457-0.12-7.024-0.816-10.434-1.374
		c-13.596-2.225-25.319-9.01-38.109-13.587c-6.613-2.367-12.617-5.132-18.642-8.708c-4.175-2.478-7.827-5.514-11.809-8.258
		c-3.684-2.539-7.575-4.681-11.13-7.426c-1.302-1.005-3.229-2.177-3.539-3.826"/>
</g>
<g id="Layer_5">
	<path fill="none" stroke="#00FF6D" stroke-miterlimit="10" d="M200.667,113.833c-2.861-0.336-5.409,2.851-7.1,4.641
		c-1.6,1.694-2.924,4.328-3.413,6.649c-0.558,2.648,1.178,6.076,2.259,8.52c0.514,1.162,1.49,1.815,1.423,3.165
		c-0.088,1.774-1.952,2.346-3.281,3.219c-2.712,1.78-5.338,2.305-8.635,1.976c-3.532-0.353-6.047-1.748-6.983-5.154
		c-0.465-1.692-0.891-4.662-3.079-3.349c-1.192,0.715-2.301,2.514-3.331,3.468c-0.908,0.841-1.774,1.604-2.766,2.354
		c-1.234,0.933-3.72,2.534-4.098,4.007c-0.473,1.846,1.299,2.854,2.328,3.991c0.806,0.891,0.78,1.201,1.906,1.348
		c1.335,0.175,3.173-0.856,4.401-1.333c5.804-2.253,11.773-4.022,17.781-5.679c5.291-1.459,10.343-3.558,15.794-4.365
		c5.529-0.819,11.392-0.617,16.963-0.377c6.78,0.291,13.711,0.546,20.411,1.589c4.642,0.723,10.021,2.293,14.73,1.303
		c2.366-0.498,5.944-1.728,6.939-4.07c1.081-2.545,0.981-6.716,0.88-9.477c-0.14-3.833,0.653-7.319-0.794-11.016
		c-1.932-4.938-4.723-10.848-11.065-10.095c-3.3,0.392-4.934,2.771-6.981,5.079c-2.835,3.198-4.699,6.873-6.541,10.737
		c-2,4.195-3.875,6.183-7.926,8.231c-3.269,1.653-5.997,4.481-9.791,4.815c-3.09,0.272-6.915-1.086-8.99-3.467
		c-2.892-3.319,0.951-6.854,3.758-8.511c2.38-1.405,4.693-2.48,5.352-5.375c0.647-2.842-1.775-6.356-3.627-8.363
		c-4.323-4.687-11.742,5.041-15.533,6.96c-1.018,0.515-2.023,0.359-2.879,1.226c-2.245,2.274-0.593,5.833,0.229,8.245
		c1.501,4.406,4.317,8.006,8.488,10.114c5.709,2.885,12.006,0.639,17.504-1.508c4.843-1.891,8.714-3.596,12.169-7.624
		c3.21-3.743,4.983-8.889,8.46-12.31c2.565-2.524,5.318-4.295,9.018-4.241c4.081,0.061,5.02,4.521,5.36,7.883
		c0.239,2.367-0.004,4.827,0.164,7.21c0.161,2.287,0.701,4.528,0.837,6.818c0.219,3.692,0.006,6.079-3.974,6.767
		c-5.731,0.99-11.297-1.52-16.983-1.505c-6.921,0.019-13.822-0.014-20.719,0.326c-4.84,0.239-10.555,0.201-15.165,1.675"/>
</g>
<g id="Layer_6">
	<path fill="none" stroke="#00FF6D" stroke-miterlimit="10" d="M236.167,177.833c-1.3-4.64-3.672-8.971-5.338-13.497
		c-1.477-4.012-3.552-7.77-5.335-11.652c-0.855-1.861-1.315-2.729-3.412-3.003c-3.804-0.497-9.032-0.508-12.657,0.899
		c-1.613,0.626-3.159,1.389-4.808,1.932c-0.79,0.26-1.887,0.324-2.558,0.867c-1.313,1.062-1.345,2.965-1.587,4.553
		c-0.452,2.96-1.118,5.793-1.138,8.807c-0.017,2.567-0.249,4.186,1.531,6.128c2.729,2.978,5.852,5.695,8.7,8.572
		c1.864,1.883,4.46,4.836,6.987,5.804c3.835,1.468,8.926-1.456,12.418-2.751c2.053-0.761,7.606-2.674,7.903-4.931
		c0.208-1.579-1.258-3.454-1.873-4.819c-0.992-2.2-1.857-4.512-2.808-6.741c-1.933-4.529-3.379-9.556-4.829-14.249
		c-0.509-1.648-0.44-3.387-2.037-4.414c-3.454-2.221-10.362-0.526-14.06,0.085c-2.871,0.474-5.41,1.948-8.327,2.235
		c-3.237,0.319-6.224-0.44-9.245-1.14c-3.413-0.79-6.155,1.595-9.387,1.987c0.361,1.724,3.457,4.063,4.688,5.312
		c0.886,0.899,1.537,2.632,2.512,3.087c0.782-2.657,0.788-7.531-0.073-10.233c1.181-0.81,4.388-0.599,5.559-0.18
		c1.132,0.405,2.269,1.29,3.496,1.689c0.089,5.293-2.262,10.613-0.453,15.927c1.445,4.245,6.096,7.644,9.136,10.725
		c1.091,1.106,2.413,1.893,3.277,3.215c0.625,0.956,1.04,1.918,1.757,2.826c1.352,1.714,2.676,3.488,4.721,4.3
		c4.134,1.642,7.324-0.987,11.539-1.078c0.125,2.088-1.347,4.938-1.962,7.012c-0.303,1.019-0.656,1.909-1.481,2.619
		c-1.195-0.91-2.233-1.647-3.004-2.961c-1.142-1.948-1.248-4.383-3.376-5.661c1.727-1.503,5.558-1.317,7.188-2.437"/>
	<path fill="none" stroke="#00FF6D" stroke-miterlimit="10" d="M268,153.333c-0.158,3.415-1.382,5.919-2.473,9.051
		c-0.513,1.473-0.747,3.182-0.43,4.727c0.465,2.266,2.077,4.651,3.127,6.703c0.397,0.775,0.721,1.678,1.409,2.18
		c0.118-1.693-0.24-3.165-0.483-4.837c-0.336-2.31-0.109-4.682-0.329-7.003c-0.192-2.024-0.661-3.755-0.653-5.826
		c0.007-1.713,0.248-3.652-0.167-5.329"/>
</g>
<g id="Layer_7">
	<path fill="none" stroke="#00FF6D" stroke-miterlimit="10" d="M25.667,200.667c8.213,0,15.594-0.581,23.614-2.242
		c11.183-2.316,22.404-1.92,33.809-2.499c22.269-1.131,44.567-2.487,66.881-3.275c2.987-0.106,7.547-1.263,10.368-0.909
		c2.199,0.276,1.916,0.272,2.585,2.594c1.006,3.49-0.342,7.556-0.951,10.932c-0.794,4.401-0.64,8.871-0.641,13.337
		c0,3.864-1.636,13.917,1.052,16.411c1.435,1.331,8.335,2.266,10.154,2.576c5.568,0.951,11.06,2.007,16.619,3.083
		c13.383,2.59,27.013,2.531,40.473,4.324c6.533,0.87,13.174,1.435,19.66,2.649c3.926,0.735,8.005,2.294,12.016,2.386
		c0.424,2.919-0.653,6.174-0.807,9.137c-0.425,8.199-0.228,16.445,0.346,24.631c1.039,14.8,4.551,29.201,3.77,44.165
		c-0.438-0.076-0.643-0.398-0.616-0.967"/>
	<path fill="none" stroke="#00FF6D" stroke-miterlimit="10" d="M26.333,222c6.317,0.085,13.148,0.011,19.422-0.659
		c2.122-0.227,6.374-2.335,8.227-1.696c3.784,1.305,2.714,14.072,3.004,17.98c0.32,4.318,0.669,8.478,0.68,12.85
		c0.044,18.505-2.731,36.539-3.659,54.843c-0.185,3.658-0.586,6.77-2.386,10.031c-1.348,2.442-6.505,10.503-7.955,10.651"/>
	<path fill="none" stroke="#00FF6D" stroke-miterlimit="10" d="M380.667,323.333c1.725-4.393,0.876-11.323,0.616-15.963
		c-6.403-0.251-14.007-4.205-19.616-7.055c-9.43-4.791-19.985-6.389-29.4-10.891c-4.632-2.215-8.664-5.197-13.203-7.692
		c-5.059-2.78-11.021-4.925-16.428-7.07c-8.422-3.341-15.9-8.719-23.481-13.666c-4.805-3.136-10.156-5.619-14.513-9.236
		c0.213,5.285-0.85,11.04-0.974,16.397c-0.215,9.253,0.328,18.412,0.683,27.631c0.417,10.816-1.163,22.326,1.374,32.7
		c-0.123-0.755-0.364-1.474-0.724-2.156"/>
	<path fill="none" stroke="#00FF6D" stroke-miterlimit="10" d="M247,240c-9.051-3.78-17.414-9.375-26.242-14.26
		c-7.798-4.316-16.247-7.234-23.911-11.82c-5.827-3.487-11.198-6.774-16.882-10.567c-2.78-1.855-7.027-4.669-10.329-5.442
		c-2.62-0.613-2.148-1.106-3.219,1.989c-1.964,5.674-0.75,13.183-0.75,19.078c0,2.303-1.058,9.301,0.377,10.963
		c2.31,2.673,11.467,1.956,14.775,2.387c13.512,1.761,26.378,5.245,40.072,5.701c7.665,0.256,17.378-0.093,24.109,1.305"/>
	<path fill="none" stroke="#00FF6D" stroke-miterlimit="10" d="M215,25c-0.302-0.823,0.191-1.223-0.76-1.47
		C214.145,24.122,214.399,24.612,215,25c1.88-2.702,8.82,2.326,10.014,5.283c1.466,3.631,0.517,6.564,0.049,10.005
		c3.919,0.052,8.979-0.369,7.479,5.228c-0.667,2.491-3.089,5.267-4.189,7.75c-0.58,1.308-1.058,2.91-1.728,4.134
		C224.109,61.996,224,64.427,224,69.801c0,2.315-0.885,7.375,0.929,8.907c3.818-3.468,4.063-6.446,9.08-4.698
		c3.634,1.267,7.115,3.95,9.886,6.545c6.249,5.852,11.338,12.782,17.407,18.805c4.03,3.999,7.153,8.86,10.262,13.529
		c0.259-0.596,1.115-1.358,1.227-1.557c0.304,2.178,1.838,7.354,1.21,9.501c-0.781,2.666-5.251,2.722-7.934,1.815
		c7.057,0.321,15.985-1.59,12.607-9.6c-1.498-3.552-3.145-6.02-5.603-8.967c-3.437-4.123-8.148-5.925-11.641-9.965
		c-3.171-3.667-5.884-9.736-0.16-11.775c3.932-1.4,7.489-0.199,11.262,0.74c5.718,1.422,10.533,0.473,16.243-0.367
		c5.867-0.863,13.653-1.409,18.245-5.751c4.871-4.606,1.261-11.312,8.901-13.628c15.69-4.755,10.183,25.957-1.915,28.362
		c-17.407,3.461-5.832-30.111,4.611-32.508c6.584-1.511,8.878,11.565,9.647,15.563c0.712,3.704-0.87,8.982,0.858,12.388
		c1.298,2.56,4.168,4.408,5.579,7.278c1.913,3.893,2.763,9.462,6.589,11.9c0.344-6.538,2.58-14.996,6.778-19.794
		c3.042-3.477,5.455-5.02,5.924-10.125c0.603-6.576-2.32-13.768,0.996-19.845c2.097-3.844,13.431-21.67,19.004-13.613
		c2.056,2.973,0.764,11.305,0.038,14.682c-1.408,6.546-6.737,12.698-10.446,18.125c-4.11,6.013-2.703,10.212-2.582,16.872
		c0.087,4.8-1.139,4.407-4.507,6.899c-2.405,1.779-4.016,4.878-4.168,7.897c-0.186,3.688,1.874,6.933,2.66,10.496
		c0.498,2.259,0.233,5.285,1.004,7.428c1.915,5.322,8.721,2.489,13.002,1.657c6.71-1.305,12.856-2.019,18.674-5.758
		c6.203-3.986,12.096-0.898,18.5,2.262c6.135,3.027,2.025,7.757-1.874,11.22c-4.43,3.934-10.743,4.618-13.243,10.726
		c-1.349,3.295-0.424,7.852-3.672,10.193c-2.368,1.707-6.717,1.247-9.464,0.714c-6.886-1.336-14.755-8.474-19.981-12.999
		c-3.192-2.764-6.542-6.048-8.958-9.524c-1.602-2.304-2.318-5.218-3.984-7.416c-3.942-5.201-4.579,3.702-5.554,7.145
		c-1.546,5.457-5.877,7.681-8.326,12.401c-2.748,5.295-0.486,6.573,2.938,10.739c4.143,5.04,7.017,10.921,10.024,16.645
		c0.981,1.867,4.776,7.609,3.213,10.017c-4.72,7.272-20.954-15.687-23.602-19.357c-3.09-4.28-5.172-8.865-5.07-14.298
		c-4.048,0.432-8.945,2.622-9.88,6.926c-0.47,2.164-1.026,5.491-1.221,7.533c-0.052,0.547-1.017,0.666-0.841,1.468
		c0.286,1.309,3.967,3.325,4.863,4.046c2.323,1.87,5.351,3.699,2.746,6.626c-1.967,2.21-4.402,1.016-3.644,5.191
		c0.437,2.405,4.483,5.194,3.778,7.865c-0.904,3.428-6.933,2.133-9.227,2.864c6.444,10.165,16.59,17.498,25.804,24.956
		c1.182,0.956,4.887,5.724,6.442,5.775c3.028,0.1,3.314-5.302,6.046-6.438c4.08-1.697,8.798,2.306,11.193,5.122
		c1.347,1.583,9.252,8.661,9.325,10.737c0.064,1.815-2.244,3.504-3.839,4.238c-5.144,2.366-9.013-1.357-13.082-4.188
		c-4.904-3.412-11.872-8.434-6.343-14.243c5.205-5.469,13.285-4.168,18.402,0.584c3.691,3.429,6.375,7.899,7.252,12.604
		c0.622,3.34,1.418,5.907,3.929,8.543c5.702,5.986,14.81,12.245,23.349,11.458c8.799-0.812,12.227-7.291,19.938-10.041
		c5.019-1.79,12.919-1.525,15.322,3.975c1.685,3.857,0.171,10.521-1.484,14.137c-0.426,0.044-0.684-0.216-0.775-0.781"/>
	<path fill="none" stroke="#00FF6D" stroke-miterlimit="10" d="M228,84c2.094-6.271,2.254-10.793,10.324-9.358
		c7.237,1.286,14.419,5.725,19.456,11.117c7.536,8.069,11.11,19.964,20.236,26.706c3.219-4.773,2.637-14.59,9.829-14.13
		c6.657,0.426,9.597,10.73,14.491,14.805c2.84-3.394,4.134-7.652,5.331-11.856c0.643-2.257,1.455-6.205,4.343-6.555
		c4.324-0.525,8.076,7.525,9.689,10.62c2.331,4.474,2.653,7.926-2.228,9.557c-4.085,1.365-3.095,0.219-3.845,4.192
		c-0.345,1.825-2.398,5.267-0.806,6.848c2.938,2.919,10.913-1.227,8.016-5.783c-2.565-4.033-6.043-0.819-6.929,2.518
		c-1.522,5.726,2.812,7.92,7.852,8.32c2.755,0.219,5.208-0.26,7.85-0.978c1.107-0.301,4.252-2.038,5.451-1.743
		c1.01,0.249,3.371,3.711,4.064,4.504c6.814,7.791,11.835,17.244,18.573,25.229c-2.289,0.835-5.193,0.437-7.327-0.932
		c-1.868-1.198-4.477-6.054-7.373-5.459c-1.732,0.356-2.442,2.109-1.997,3.864c0.724,2.859,4.791,3.772,7.313,4.36
		c10.863,2.533,6.967-6.913-0.291-9.855c-5.586-2.264-8.654-1.258-13.458,1.203c-5.674,2.907-24.303,4.727-18.723,14.835
		c3.423,6.202,9.988,7.062,15.332,10.8c6.767,4.733,10.58,9.122,19.193,10.777c4.905,0.943,4.995,0.463,8.827-1.918
		c4.171-2.592,10.551-1.269,15.208-1.097c10.908,0.403,20.338,0.566,29.633-5.591c4.355,1.972,2.482,7.624,1.042,10.71
		c-2.232,4.785-5.04,5.33-9.054,8.693c-7.672,6.427-13.687,16.646-24.267,18.754c-5.556,1.107-10.103-2.868-7.723-8.437
		c2.792-6.535,7.69-4.894,13.63-6.301c4.682-1.109,7.255-2.128,7.959-7.072c0.329-2.312-0.006-4.444,0.581-6.754
		c0.605-2.38,2.15-4.361,1.778-6.92c-7.403-0.959-10.206,8.084-10.661,13.485c-0.546,6.476-5.197,12.347-12.131,12.859
		c-6.941,0.513-10.316-3.338-11.354-9.526c-0.344-2.051-1.066-4.053-0.395-5.917c0.945-2.621,5.786-7.211,8.843-6.961
		c8.942,0.732,4.781,10.393,5.03,15.049c0.169,3.146,3.167,5.73,5.043,7.993c3.685,4.444,7.696,6.973,13.981,5.346
		c4.733-1.225,8.983-7.595,12.16-11.101c2.708-2.989,5.016-7.261,8.21-9.642c1.79-1.334,4.538-1.661,5.964-3.26"/>
	<path fill="none" stroke="#00FF6D" stroke-miterlimit="10" d="M481,244.667c-0.594-1.777-2.895-3.555-4.085-5.229
		c-2.425-3.413-4.401-6.256-8.104-8.394c-5.372-3.102-13.754-3.831-18.791,0.235c-7.885,6.366-10.65,22.943-1.292,29.053
		c10.861,7.092,25.333,7.051,30.862-5.985c5.546-13.075-4.997-21.371-17.701-21.045c-8.269,0.212-10.51,9.026-12.929,15.663
		c-2.003,5.496-1.723,10.305,3.54,13.675c13.49,8.638,30.048-1.923,28.492-17.692c-0.464-4.697-3.998-9.568-8.203-11.787
		c-4.947-2.611-9.522-0.408-13.87,2.339c-7.58,4.788-15.501,18.275-7.586,26.496c4.112,4.271,14.351,5.195,19.627,3.161
		c5.492-2.117,8.278-7.631,9.696-13.144c1.882-7.317,1.246-14.209-5.223-18.61c-3.113-2.117-8.657-4.063-12.1-2.403"/>
	<path fill="none" stroke="#00FF6D" stroke-miterlimit="10" d="M421.333,257c-4.788-3.501-11.283,15.766-13.351,18.332
		c-5.023,6.235-19.017,7.779-26.208,5.462c-5.351-1.724-9.935-8.565-14.424-12.185c-2.34-1.887-5.297-4.213-5.774-7.424
		c-0.531-3.573,1.809-3.58,3.784-6.485c-3.716-1.54-7.514-5.393-10.697-7.884c-3.008-2.354-6.889-5.554-8.037-9.323
		c0.255,5.603,1.626,11.046,2.064,16.587c0.191,2.425-0.395,4.267,1.23,6.291c1.346,1.676,4.223,2.367,5.369,4.318
		c1.351,2.299-0.181,4.913,0.372,7.594c1.092,5.295,7.424,8.808,9.378,14.065c0.77,2.07,4.584,7.846,3.464,9.879
		c-1.346,2.444-7.521,1.765-9.86,1.771c-6.529,0.018-10.764-5.616-14.738-10.421c-2.052-2.482-7.037-5.833-5.712-9.431
		c1.503-4.082,12.922-3.649,9.784-8.453c-2.296-3.515-11.275-2.764-15.063-3.613c-3.493-0.783-6.832-1.04-5.027-4.973
		c1.211-2.639,3.907-3.256,1.435-4.783c-2.377-1.468-7.541-0.408-10.384-1.304c-10.491-3.304-21.21-5.725-31.591-9.103
		c-3.41-1.11-6.401-2.967-9.731-4.152c-1.72-0.612-3.956-0.618-5.432-1.755c-2.063-1.588-2.811-5.455-5.151-7.352
		c-7.519-6.095-17.717-6.951-25.364-13.06c-6.481-5.177-14.065-14.162-14.04-22.879c0.032-11.161,11.585-8.707,18.368-13.249
		c1.708-1.144,4.777-2.905,6.214-4.17c2.454-2.16,1.671-3.193,1.113-6.243c-1.685-9.21-1.457-15.721,3.944-23.409
		c5.319-7.57,11.945-12.905,20.094-17.62c4.525-2.618,8.176-4.937,13.54-4.712c2.698,0.113,5.385,1.394,8.072,0.906
		c0.373-5.123-5.512-5.542-9.136-5.556c-6.61-0.025-11.05,2.051-15.975,6.345c-2.499,2.179-3.762,4.099-6.113,1.39
		c-2.605-3.001-3.5-8.756-4.082-12.561c-0.841-5.49-2.41-14.657-9.768-14.871c-3.316-0.096-6.203,3.137-8.395,5.182
		c-4.095,3.821-6.408,7.922-9.956,11.974c-4.305,4.915-12.714,10.959-19.855,9.822c-0.993-5.53,7.92-9.479,11.923-10.992
		c-0.059-4.596,2.507-8.453,2.741-13.158c0.164-3.303-2.683-10.159-6.122-11.53c-2.825-1.126-6.489,2.774-8.509,4.34
		c-5.308,4.117-6.105,3.201-11.926-0.222c-8.005-4.707-16.362-8.967-24.12-14.09c-5.858-3.869-10.897-8.436-16.482-12.638
		c-1.151-0.866-10.663-9.106-7.07-10.384c1.676-0.596,9.279,4.944,10.395,5.852c6.392,5.205,11.791,11.318,17.4,17.314
		c5.87,6.276,11.633,11.689,20.363,13.199c7.649,1.323,13.886-1.14,20.732-4.397c-0.039-6.316-4.277-12.855-8.039-17.881
		c-5.032-6.724-12.052-12.621-17.781-18.777c-6.504-6.989-12.484-15.012-18.318-22.586c-1.21-1.57-2.56-4.505-4.88-3.664"/>
</g>
<g id="Layer_10">
</g>
<g id="Layer_9">
</g>
<g id="Layer_8">
</g>
</svg>
